<svg id="Layer_1" data-name="Layer 1" xmlns="http://www.w3.org/2000/svg" viewBox="0 0 2000 2000"><path d="M1211.48,841.38c-11-30.73-25.24-60-41.07-88.47-1.36-2.42-2.35-5.15-5.17-7.5-42.28,31.62-82.48,65.12-108.56,113.2-18.56-3.09-37.42-5.41-56.37-5.45s-38,2.43-56.59,5.41c-26.13-48-66.23-81.51-108.42-113.09-2.22,1.56-2.83,3.17-3.67,4.6-8.1,13.74-15.18,28-22,42.42-15.2,31.9-28.39,64.52-34.51,99.63A112.58,112.58,0,0,0,782.35,957c.43,1,.48,2.4,2.41,2.36.62-1.1,1.31-2.32,2-3.55a170,170,0,0,1,19.75-29.13,23.29,23.29,0,0,1,7.52-6,241.6,241.6,0,0,1,27.07-11.55c20.09-7,40.74-10.87,62-9.45,37.24,2.49,68.48,18.11,94.54,44.53,1,1,1.71,2.31,3.23,2.67,1.47-.45,2.23-1.72,3.21-2.71,29.58-29.82,65-45.71,107.34-44.62,23.43.61,45.5,7.23,66.91,16.57a48.2,48.2,0,0,1,20,15.86,223.32,223.32,0,0,1,15.49,24.1c.66,1.18.9,2.73,2.29,3.25a1.72,1.72,0,0,0,1.5-1.27c5-12.54,9-25.31,9.47-39C1228,892,1220.46,866.52,1211.48,841.38ZM815.14,917.2a67.1,67.1,0,0,1-5.52-17.82c-2.47-14.53-.34-28.84,2.47-43,4.35-22,11.51-43.11,19.87-63.85.33-.81.82-1.56,1.77-3.33,8.54,33,16.8,65,25.17,97.33C843.21,895.07,828.59,904.84,815.14,917.2Zm372.27-5c-.55,1.43-1.14,2.84-2,5.07a215.69,215.69,0,0,0-43.87-30.68c8.35-32.29,16.62-64.32,25-96.91,2.52,3,3.26,6.14,4.36,9,7.74,20.14,14.43,40.62,18.24,61.91C1192.25,877.88,1193.86,895.17,1187.41,912.16Z"/><path d="M972.38,1107.72c-9.53,3.82-12.86,12.07-8.63,21.41,2.35,5.2,6.25,9.16,10.63,12.62,8.33,6.57,17.47,11.42,28,12.64,1.54-.2,2.85-.25,4.1-.54a59.47,59.47,0,0,0,30.6-17.92,24.66,24.66,0,0,0,5.09-8.17c3.07-8.12,0-15.65-7.83-19.37a25.68,25.68,0,0,0-6.61-2.14c-14.63-2.52-29.33-1.85-44-1A36.22,36.22,0,0,0,972.38,1107.72Z"/><path d="M1280.79,1081.58a9.08,9.08,0,0,0-1.34-3.47L1246.24,1018c-3.74-6.77-7.51-13.58-12.48-19.5A89.3,89.3,0,0,0,1216,983c-16.58-11.51-35.1-20-54.29-26.3-17.38-5.67-35.57-9.5-53.84-8.88s-36.71,6-51.18,17.12c-21.8,16.84-32.36,45.56-31.49,73.09s12,53.91,27,77a242.58,242.58,0,0,0,54.56,59.45q3.87,3,7.87,5.88c2,1.43,7.57,3.83,8.62,6,2.34,4.73-11.44,8.88-14.93,10.47a334.18,334.18,0,0,1-42.27,16q-7.83,2.36-15.78,4.29c-28.91,7-57.93,8.39-87.24,2.75-29.92-5.75-58.16-16.22-85.25-30-1-.53-2.57-.66-2.76-2.27a3.57,3.57,0,0,1,.54-.63c.74-.51,1.52-1,2.28-1.47,32.7-21.19,59.18-48.28,77.82-82.66,13-24,20.71-49.49,19.31-77.2-1.72-34.24-22-61.43-53.92-72.41-13.42-4.62-27.23-5.7-41.43-5.17h-.11a87.54,87.54,0,0,0-11.88.95l-1.34.19c-7.12,1.09-13,2.58-13.78,2.79l-.1,0c-31.84,8-59.7,23.47-84.79,44.31a14.32,14.32,0,0,0-3.83,4.32c-13.83,26.58-29.34,52.24-43.72,78.52a3.9,3.9,0,0,0-.74,3.22c.37.47.87,1.21,1.47,1.87a603.2,603.2,0,0,0,51.86,50c15.59,13.42,32,25.87,48.23,38.46,19.88,15.39,43.58,26.11,65.35,39.17A270.37,270.37,0,0,0,939.57,1236c9.28,3.11,18.68,5.81,28.17,8.19,8.14,2,19.21,6.63,27.65,4.94,9.56-1.69,19.19-3.16,28.71-5.07,25.69-5.16,50.62-16.09,74.44-26.8,24.13-10.86,44.11-18.57,66-33.44,41.28-28,78.53-61.59,113.54-97.12,1.25-1.27,2.57-2.69,2.71-4.46A5.43,5.43,0,0,0,1280.79,1081.58Zm-418.18-45.77a31,31,0,1,1,30.79,30.93A30.81,30.81,0,0,1,862.61,1035.81ZM1107,1066.74a31,31,0,1,1,30.83-30.89A31,31,0,0,1,1107,1066.74Z"/></svg>