<svg xmlns="http://www.w3.org/2000/svg" id="Layer_1" data-name="Layer 1" viewBox="718.88 600.22 562.29 799.47"><path d="M1281.17,936.38c-.63-1.28-1.14-2.47-1.77-3.57-14.54-25.17-28.81-50.49-42.44-76.16a20,20,0,0,0-5.22-6.13c-17.48-14.35-36.39-26.4-57.41-34.91-27.45-11.11-55.61-16.28-85.22-10.38a78.68,78.68,0,0,0-62.7,64.46c-3.86,23.58,0,46.14,8.73,67.94,16.94,42.27,45.89,74.71,83.2,100.13,2.31,1.56,4.93,2.72,6.82,4.81-.27.45-.35.75-.54.86-.88.52-1.79,1-2.71,1.48-23,11.64-46.9,21-72,27-28.9,7-57.93,8.39-87.24,2.76-29.92-5.75-58.16-16.23-85.24-30-1-.53-2.58-.66-2.76-2.27a3.19,3.19,0,0,1,.53-.63c.75-.52,1.52-1,2.28-1.48,32.7-21.18,59.19-48.27,77.82-82.65,13-24,20.72-49.5,19.31-77.2-1.72-34.24-22-61.44-53.92-72.41-13.42-4.62-27.23-5.7-41.43-5.18h-.11a87.28,87.28,0,0,0-11.87,1l-1.34.19c-7.13,1.09-13,2.58-13.79,2.78l-.09,0c-31.85,7.95-59.71,23.47-84.8,44.31a14.24,14.24,0,0,0-3.82,4.31c-13.84,26.59-29.35,52.25-43.73,78.53a3.89,3.89,0,0,0-.74,3.21c.37.48.88,1.21,1.47,1.87a600.32,600.32,0,0,0,51.87,50c24.79,21.33,51.54,40.21,76.69,61.1.87.72,2.2,1.12,2.54,3l-42.61-16.65c-1.69,1.23-2,2.67-2.43,4-11.06,32.48-22.37,64.9-33.09,97.5-10.24,31.14-21.91,61.88-26.67,94.6-3.14,21.67-5.16,43.3-3.16,65.24,2.54,27.71,15.63,49.26,37.28,66.06,12.31,9.55,26.18,16,41,20.49a356.15,356.15,0,0,0,65.3,12.9c20.18,2.19,40.41,3.48,60.7,1.18,11.11-1.26,21.13-4.82,29.16-12.93,8.52-8.6,13.47-22.32,13.61-35.85l2.06,1.1a5.41,5.41,0,0,0,3.67.62,74.51,74.51,0,0,0,.93,9.66c2.93,18.31,17.15,33.89,35.63,36.65a175.62,175.62,0,0,0,30.9,1.9,402.5,402.5,0,0,0,44-3.47c23.74-3.28,47.33-7.43,69.55-16.65,39.57-16.42,63.5-44.84,65.43-89a284.33,284.33,0,0,0-12.5-96.41c-15.14-49.13-32.87-97.4-50.07-145.85-.43-1.21-.67-2.53-2.43-3.11l-22.06,7.72-21.82,7.64c-.17-.31-.35-.62-.53-.93C1186.35,1023,1238.88,985.93,1281.17,936.38ZM862.26,890.61A31,31,0,1,1,893,921.54,30.79,30.79,0,0,1,862.26,890.61ZM1012,1095.89c2,1.35,4.06,2.71,6.09,4.07,4.2,2.72,8.42,5.41,12.58,8.19,14.54,9.66,29,19.43,43.6,29,9.5,6.23,19.18,12.18,28.77,18.26.49.32,1,.62,1.51.91l.5.3-1,.51c-.35.18-.68.35-1,.54l-24.06,13c-.11.06-.23.11-.34.18h0l-.08,0-1,.52-1.12.6h0l-.09.08,0,0h0a.48.48,0,0,0-.11.09l-.54.4c-.15.12-.32.23-.48.34s-.29.2-.45.29-.63-.12-.79-.32c-2.32-3-4.54-6.1-6.92-9.06-4.31-5.38-8.72-10.67-13-16a2.87,2.87,0,0,1-.49-1.78c0-.52.06-1,.1-1.55l.15-1.68c.1-1,.21-2,.3-3-.23-.34-.47-.67-.7-1a5.66,5.66,0,0,0-.87.74l-.23.33c-.22.34-.41.71-.62,1.06v0a.57.57,0,0,1,0,.13l0,0c-1.06,2.68-1.09,2.7-2.84.44-3.11-4-6.09-8.05-9.28-12-3.53-4.32-7.32-8.41-10.86-12.73-5.66-6.9-11.2-13.89-16.79-20.85a3.11,3.11,0,0,1-.25-.38A2.25,2.25,0,0,1,1012,1095.89Zm36,56.77-.25.1-.52.22.52-.22Zm-49.61-64.9c.54.79,1.14,1.55,1.72,2.33,5.83,7.33,11.63,14.67,17.47,22,5,6.29,10.07,12.57,15.18,18.8,4,4.89,8.13,9.68,12.17,14.54,1.53,1.84,1.49,1.87.22,3.85a4.84,4.84,0,0,1-.33.46l-.19.26-.11.14h0l.1-.14-.1.14,0,0c-.34.52-.7,1-1,1.58-.25.37-.48.75-.7,1.14a1.23,1.23,0,0,0-.07,1.08,1.25,1.25,0,0,0,1.08.19l.8-.24.58-.19.07,0-.07,0,.6-.21,1.19-.41c.49-.21.88-.38,1.22-.51l.14,0,.09,0h0l.17,0a2.94,2.94,0,0,1,.57-.14h.36l.23,0a1.3,1.3,0,0,1,.31.16,1.6,1.6,0,0,1,.23.16,12.65,12.65,0,0,1,1.39,1.51q7.72,9.15,15.43,18.31a4.26,4.26,0,0,1,.34.55,4.53,4.53,0,0,1-.62.07c-4.78-.3-9.54-.76-14.31-.89-10.27-.28-20.54-.35-30.8-.56-3.62-.08-7.22-.45-10.84-.51-7.89-.11-15.79,0-23.68-.18-4.11-.07-8.2-.48-12.3-.62-8-.3-16.1-.54-24.15-.77l-3-.09-4.12-.09-4.76-.1h-.46l-2,0-.69-.06c-1.12,0-2.24,0-3.38-.06a3.1,3.1,0,0,1-.69-.19c.13-.18.24-.37.38-.54,3.66-4.49,7.36-9,11-13.45q12.06-14.92,24.11-29.85a4.2,4.2,0,0,1,1.7-1.16c1.85-.72,3.74-1.33,5.63-2l8.46-3.39h0c0,.21.18.44.14.62a12,12,0,0,0-.47,1.51,9.77,9.77,0,0,0,.13,1.69,4.62,4.62,0,0,0,1.38-.79c.78-1,1.44-2,2.14-3,.13-.18.28-.35.41-.52a3.38,3.38,0,0,1,.1.7c-.23,3.83-.41,7.66-.71,11.49q-.79,10-1.73,20c-.16,1.71.56,3.19,1.91,3.33s2.22-.82,2.33-2.66.14-3.45.25-5.18q.95-15.62,1.9-31.21c.09-1.39.06-2.79,0-4.17a2,2,0,0,0-1.77-2.27c-1.17-.14-1.75.68-2.13,1.65-1,2.48-2,5-3,7.43a6.14,6.14,0,0,1-.93,1.2l-6.22,1.56-3.14.89-3.15.88a1.28,1.28,0,0,1-.39,0h-.13a1.09,1.09,0,0,0,.08-.15c.09-.14.17-.29.27-.42,2.8-3.35,5.66-6.66,8.4-10.06q9.32-11.58,18.53-23.23C997.66,1087.21,997.92,1087.06,998.39,1087.76Zm-114.45,58.18,3-1.33q10-5.29,19.93-10.59a1.53,1.53,0,0,1,1-.06c1.16.29,2.32.94,3.45.88a8.76,8.76,0,0,0,5.6-2.63A3.3,3.3,0,0,0,918,1129a1.11,1.11,0,0,1,.46-.91c4.49-2.69,9-5.33,13.49-8,.66-.39,1-.28,1.49.25,1,1,2.07,2,3.15,2.92,1.42,1.21,2.69.75,2.92-1.12s.17-3.61.34-5.4a1.69,1.69,0,0,1,.72-1.19Q963,1103.74,985.42,1092l.46-.22.46-.2.8-.44,1.61-.89.81-.43a2,2,0,0,1,.49-.16l.33-.07.17,0h0a.72.72,0,0,0-.12.21,4.85,4.85,0,0,1-.39.61c-3.16,3.81-6.38,7.56-9.48,11.42-4.87,6.07-9.61,12.25-14.47,18.32-2.69,3.35-5.49,6.6-8.29,9.85a3.72,3.72,0,0,1-1.62.73c-.9.3-1.81.55-2.72.81l-6.23,2.49a4,4,0,0,0-.44.27,3.2,3.2,0,0,0,.54,0l2-.46,2-.45,4.22-1.19.21,0,.22,0,0,.12a1.11,1.11,0,0,1-.15.33l-2.58,3.14q-4.59,5.53-9.17,11.1h0a2.36,2.36,0,0,0,0-.37,1.88,1.88,0,0,0,0-.34,3,3,0,0,0-.74-1.52l-.3-.32c-.15-.16-.32-.32-.48-.47a37.9,37.9,0,0,1-3.1-3.25c-2-2.63-3.81-5.39-5.78-8a1.91,1.91,0,1,0-3.1,2.22,47.16,47.16,0,0,0,3.53,4.95c.91,1.08,1,1.5-.38,2.17-1.06.54-1.59.56-2.44-.35-2.52-2.75-5.15-5.38-7.79-8a7.46,7.46,0,0,0-1.57-1c.11.62,0,1.38.35,1.84,2.66,3.75,5.35,7.46,8.14,11.11a2.38,2.38,0,0,0,3.28.46c1.08-.61,2.13-1.27,3.24-1.84a1.15,1.15,0,0,1,1,.08c.43.41.85.84,1.26,1.28s.78.83,1.17,1.24l0,0h0l0,0,.3.13,2.39,1h0l-4,5q-6.06,7.52-12.14,15a1.32,1.32,0,0,1-1.23.16c-6.74-3.5-13.45-7.06-20.18-10.56-2.2-1.14-4.47-2.15-6.71-3.22-.2-.1-.38-.23-.58-.34a3.78,3.78,0,0,1,.54-.38l4.24-1.84c1.22-.73,2.43-1.46,3.64-2.21.17-.1.26-.34.38-.52-.24,0-.5-.19-.7-.12-1.56.52-3.12,1.05-4.66,1.64-1,.37-1.91.87-2.87,1.3s-1.85,1.22-2.55,1a18.42,18.42,0,0,1-4-2.1s.15-.49.3-.57c2.8-1.38,5.63-2.7,8.41-4.11,1.81-.91,3.57-1.93,5.33-2.94.28-.16.45-.51.67-.77a2.88,2.88,0,0,0-1,.06c-2.11.79-4.21,1.59-6.3,2.43-1.59.65-3.16,1.34-4.74,2l-1.13.49h0l-.17.07h0l-.24.1-1.62.78c-.54.26-1.09.51-1.63.75a1.08,1.08,0,0,1-.83,0c-1.78-.83-3.53-1.68-5.29-2.54a2.55,2.55,0,0,1-.38-.29A1.62,1.62,0,0,1,883.94,1145.94Zm3.17,105.32a110.49,110.49,0,0,1-4.14-23.62c1.22-.87,2.47-1.73,3.72-2.57l2.12-1.44c.92-.61,1.52-1.5,1.1-2.45a3.47,3.47,0,0,0-2-1.7c-1.86-.58-3.81-.82-5.71-1.29a1.22,1.22,0,0,1-.66-1c-.08-7,0-14.07-.14-21.11-.25-15-.57-29.95-.85-44.93,0-.25,0-.51,0-.77s0-.51.06-.78l.7.34c.24.11.47.21.69.33l38,19.51c.37.19.76.36,1.15.53l.39.17.64.21.35.11.3.1.25.11.19.11a.53.53,0,0,1,.14.11.35.35,0,0,1,.1.12c.14.24.06.56-.18,1.09a1.66,1.66,0,0,1-.14.31c-.1.22-.23.47-.36.77-2.76,5.76-5.41,11.57-8.06,17.4-5.15,11.37-10.26,22.76-15.43,34.13q-3.47,7.64-7,15.27C890.71,1244,888.92,1247.64,887.11,1251.26Zm12.59,29.64h0Zm0,0h-.16l.1,0,.13,0Zm4.26,4.22c-1-1.26-1.9-2.54-2.8-3.85l11.21,2.79h0l2.1.53a9,9,0,0,0,1,.23,10.63,10.63,0,0,1,1.13.18C912.33,1284.91,908,1285.13,904,1285.13Zm21.67,2.21-.21-.24c.07.08.14.15.2.23l.12.13Zm4.14-5.06c-3.06-.76-6.13-1.52-9.16-2.39a3.32,3.32,0,0,1-1.59-1.34c-.68-1-1.16-2.19-1.74-3.29-3.1-5.15-6.19-10.31-9.33-15.45a17.67,17.67,0,0,0-2-2.69c-.31-.33-1-.34-1.47-.49-.15.52-.55,1.12-.42,1.56a18.77,18.77,0,0,0,1.4,3.31l1.58,3.08c1.59,3.09,3.2,6.16,4.8,9.24l.22.39c.57,1,1.13,2,1.68,2.93a8.07,8.07,0,0,1,.37.9,5.12,5.12,0,0,1-1,0c-3.94-.78-7.89-1.52-11.81-2.39l-3.88-.89-.48-.12a101.32,101.32,0,0,1-7.28-15.46l.51-1c.37-.72.57-1.07,1.53-.73a2.47,2.47,0,0,0,1.33.11,2.34,2.34,0,0,0,.5-.14,4.8,4.8,0,0,0,.57-.26,8.21,8.21,0,0,0,.73-.47h0l.19-.14.53-.4.78-1.46c.55-1,1.11-2.1,1.67-3.14,0-.2,0-.4,0-.6v0h0c0-.05,0-.1,0-.15l0-.4c0-.13,0-.26,0-.4a2.62,2.62,0,0,0-2.1-2.82c-1.06-.13-1-.49-.63-1.24,3.09-7,6.15-13.92,9.31-20.84,3.44-7.59,7-15.14,10.8-22.57s7.08-15,10.61-22.57a5.49,5.49,0,0,1,.31-.59l.34-.59c.11.14.22.28.34.41s.22.27.33.42a2.83,2.83,0,0,1,.2.28c.71,1.11,1.38,2.24,2.06,3.37,3.44,6.13,7,12.23,10.33,18.41,4.06,7.42,8,14.91,12,22.35l.59,1.08q5.6,10.32,11.25,20.62c1.12,2,2.36,4,3.48,6.07q4.88,8.79,9.69,17.6c4.11,7.53,8,15.21,13.07,22.15a11.43,11.43,0,0,1,.62,1.07q1.39,2.19,2.78,4.38a3.51,3.51,0,0,1,.24.61,4.76,4.76,0,0,1-.65-.06c-6.7-1.7-13.38-3.51-20.11-5.09-7.65-1.79-15.37-3.3-23-5.09C943.29,1285.76,936.57,1284,929.82,1282.28ZM995,1306.17c-.3,1.89-.43,3.8-.61,5.72L992,1336c-.19,1.87-.42,3.74-.63,5.61,0,1-.06,2.08-.15,3.12,0,.1-.55.3-.67.21l-.08,0a46,46,0,0,0-5.06-18.29c-8.72-16.37-20.89-27.72-36-34.42,10.23,2.62,20.43,5.33,30.67,7.93,3.68.93,7.44,1.53,11.16,2.28.17,0,.34.08.49.12l.49.13a5.47,5.47,0,0,1,2.6.55l.15.15a1.18,1.18,0,0,1,.11.19.36.36,0,0,1,0,.11.85.85,0,0,1,0,.24A8.71,8.71,0,0,1,995,1306.17Zm-4.74-24.5c-3.76-7.16-7.81-14.17-11.7-21.26-4.3-7.82-8.52-15.68-12.83-23.49q-3.27-5.93-6.56-11.85-5.61-10.12-11.22-20.25c-5.31-9.61-10.58-19.27-15.89-28.88-.53-1-.42-1.32.72-1.22l1.57.1,1.12,0,.45,0h2.73l2.26.07c-.26.58-.57,1.16-.78,1.77a2.62,2.62,0,0,0,2.21,3.68,9.38,9.38,0,0,0,6.39-1.34,2.78,2.78,0,0,0,1.4-3c0-.17.32-.58.48-.57q13.39.2,26.77.44c11.06.21,22.12.39,33.18.63,5.87.13,11.74.36,17.6.56,8,.27,15.95.68,23.93.81,2,0,4,0,6,0,3.31-.09,6.63-.25,9.94-.33.24,0,.49,0,.73-.06.73,0,1.46-.11,2.2-.1s1.17.43.59,1.23a23.91,23.91,0,0,1-1.43,2c-5.39,5.88-9.07,12.92-13.19,19.65q-7.56,12.38-15.12,24.74l-7.34,12c-9.16,14.86-18.39,29.69-27.55,44.54-1.31,2.11-2.48,4.31-3.72,6.46a2.71,2.71,0,0,1-.41.42,2.23,2.23,0,0,1-.15-.53c-.09-1.13-.16-2.25-.25-3.38-.55-4.06-1.09-8.12-1.65-12.18a5.71,5.71,0,0,0-.3-.88,8.17,8.17,0,0,0-.17.86q-.94,9.66-1.88,19.32a10.35,10.35,0,0,0,.08,1.47c0,.21.05.4.07.6s0,.4,0,.59a3.25,3.25,0,0,1-.5,2,6.65,6.65,0,0,1-.46.59,4.07,4.07,0,0,1-.43-.65C994.83,1291.4,992.73,1286.43,990.23,1281.67Zm38.88,15.25c-20.32,12.31-31.23,28.48-32.61,48.33l-.09,0a3.5,3.5,0,0,1-.06-.72c.07-.52.14-1,.23-1.55s.13-.93.2-1.39l0-.17c.05-.64.11-1.27.16-1.91q.57-6.42,1.12-12.83.63-7.37,1.29-14.74c.28-3.27.57-6.55.86-9.82a1.37,1.37,0,0,1,.92-.81c5.19-1.11,10.4-2.08,15.58-3.25,5.47-1.24,10.91-2.62,16.34-4,.55-.14,1-.24,1.17-.09C1032.52,1294.92,1030.81,1295.88,1029.11,1296.92Zm30.16,1.51c.06-.3.1-.61.15-.91,0,.28-.08.56-.13.84C1059.28,1298.38,1059.28,1298.41,1059.27,1298.43Zm.26-1.58c0,.38-.11.76-.18,1.13l-.06.38c.09-.5.17-1,.24-1.51v0Zm22.24-11.73c-3.41,0-6.9.14-10.37,0l-1.36,0,14.35-3.53C1083.54,1282.73,1082.68,1283.94,1081.77,1285.12Zm6.38-9.47q-15.69,3.64-31.37,7.32c-5.31,1.25-10.64,2.39-16,3.63-.95.22-1.56.24-1.89-.84a5.75,5.75,0,0,0-.31-.78c-.07-.17-.16-.34-.24-.51s-.26-.5-.38-.76-.26-.53-.4-.79v0a2.65,2.65,0,0,0-.5-.72c-.41-.39-1.17-.9-1.53-.74s-.79,1-1,1.53a1.66,1.66,0,0,0-.06.21c0,.07,0,.14,0,.21a1.77,1.77,0,0,0,0,.23c0,.09,0,.19,0,.29,0,.28,0,.56,0,.84s0,.31.07.47h0c0,.29.09.58.14.86a8.6,8.6,0,0,1,.1,1.33c0,.29-.53.71-.89.81-5.35,1.4-10.72,2.71-16.07,4.14-4.46,1.2-8.9,2.53-13.35,3.79a2.34,2.34,0,0,1-.53.08l-.54,0c.14-.31.27-.61.41-.9a14.71,14.71,0,0,1,8.05-7.9,23.78,23.78,0,0,0,2.28-1.23c3-1.8,6.06-3.6,9.07-5.41a3.61,3.61,0,0,0,.58-.53c-.24.08-.49.13-.73.23l-3.33,1.48-1.69.76h0l-1.63.73-6.33,3a1,1,0,0,1-.25.08l-.26.06,0-.08,0-.1a1.42,1.42,0,0,1,.08-.18l.07-.11c2.34-3.55,4.84-7,7-10.65,4.72-7.92,9.11-16,13.93-23.9,3.91-6.39,8.31-12.47,12.39-18.75,1.64-2.52,3.07-5.16,4.61-7.74.29-.49.59-1,.89-1.47,6.19-10,12.49-19.9,18.59-29.94,2.17-3.58,3.85-7.47,5.78-11.21.3-.59.71-1.14,1.07-1.71a15.75,15.75,0,0,1,.65,1.78c2.76,11.4,7.4,22.19,11,33.32,1,3.09,2,6.16,3.06,9.23,1.93,5.74,3.88,11.47,5.71,17.24.36,1.13-.44,2.62-.7,4-.45,2-.89,4-1.34,6-.18.83-.42,1.84.63,2.06.49.1,1.22-.65,1.73-1.14a2.84,2.84,0,0,0,.51-.82c.09-.19.16-.37.26-.55l.21-.51c.08-.17.15-.34.24-.52.28-.62.59-1.23.88-1.84.26.65.54,1.3.78,2,.18.47.35,1,.53,1.43A102.67,102.67,0,0,1,1088.15,1275.65Zm14.93-101.83a1.72,1.72,0,0,0,.06.34,3.89,3.89,0,0,0,.41,1l1.4.52.65.25.67.28a1,1,0,0,1,.5.75c-.14,3.15-.4,6.31-.48,9.46-.12,4.63-.24,9.25-.14,13.87.19,8.26.62,16.51.8,24.76.08,3.31-.3,6.62-.32,9.92,0,6,.08,12,.17,18,0,2.89.15,5.78.23,8.67a2.07,2.07,0,0,1-.08.42,1.81,1.81,0,0,1-.3-.44q-1.61-4.87-3.19-9.77c-.1-.28-.18-.56-.27-.84h0c-.08-.24-.15-.48-.23-.72q-.23-.66-.42-1.32c-.36-1.09-.71-2.19-1.06-3.29l-.18-.55,0-.08c-.21-.64-.42-1.28-.62-1.93-.34-1.07-.69-2.14-1-3.22s-.65-2-1-3c-.44-1.34-.88-2.67-1.33-4q-1.33-3.93-2.65-7.84-6.35-18.69-12.76-37.38c-.35-1-.74-2-1.15-3l-.63-1.54q-.21-.46-.39-.93c-.16-.38-.33-.76-.48-1.14s-.4-.94-.58-1.42l-.08-.08a.33.33,0,0,1-.06-.1c-1.08-2.48-1-2.38,1.36-3.7,8.86-4.89,17.69-9.86,26.52-14.81.46-.26.71-.49.67.3-.06,2.18-.07,4.36-.14,6.55,0,.25-.14.7-.3.74-1.64.4-2.39,1.71-3.19,3a5.2,5.2,0,0,0-.4,1.62A3.14,3.14,0,0,0,1103.08,1173.82Zm3.54-252.28a31,31,0,1,1,30.83-30.88A30.94,30.94,0,0,1,1106.62,921.54Z"/><path d="M784.41,814.18c.61-1.1,1.31-2.32,2-3.55a170.08,170.08,0,0,1,19.75-29.14,23.39,23.39,0,0,1,7.52-6A241.6,241.6,0,0,1,840.73,764c20.09-7,40.74-10.88,62-9.45,37.24,2.49,68.48,18.11,94.54,44.53,1,1,1.72,2.31,3.23,2.67,1.47-.45,2.23-1.72,3.22-2.72,29.57-29.81,65-45.7,107.33-44.61,23.44.6,45.5,7.22,66.91,16.57a48.13,48.13,0,0,1,20,15.85,222.78,222.78,0,0,1,15.49,24.1c.66,1.18.9,2.73,2.3,3.25a1.72,1.72,0,0,0,1.49-1.26c5-12.54,9-25.32,9.47-38.95.88-27.14-6.64-52.64-15.62-77.79-11-30.72-25.24-60-41.08-88.46-1.35-2.43-2.35-5.16-5.17-7.51-42.28,31.63-82.48,65.13-108.56,113.2-18.56-3.08-37.41-5.4-56.36-5.44s-38,2.43-56.6,5.4c-26.13-48-66.22-81.5-108.41-113.08-2.23,1.55-2.84,3.17-3.68,4.59-8.1,13.75-15.17,28.06-22,42.43-15.21,31.9-28.4,64.52-34.52,99.62A112.52,112.52,0,0,0,782,811.82C782.42,812.82,782.47,814.21,784.41,814.18Zm381.78-169.74c2.52,3,3.26,6.15,4.37,9,7.74,20.15,14.42,40.63,18.23,61.92,3.1,17.29,4.71,34.58-1.74,51.57-.54,1.43-1.14,2.84-2,5.07a215.41,215.41,0,0,0-43.87-30.68C1149.49,709.06,1157.76,677,1166.19,644.44ZM811.73,711.13c4.35-22,11.51-43.1,19.87-63.84.33-.82.82-1.56,1.77-3.34,8.55,33,16.81,65,25.17,97.34-15.68,8.58-30.31,18.36-43.76,30.72a67.79,67.79,0,0,1-5.52-17.83C806.79,739.65,808.92,725.35,811.73,711.13Z"/><path d="M972,962.53c-9.52,3.82-12.85,12.07-8.63,21.41,2.36,5.2,6.25,9.16,10.64,12.62,8.32,6.57,17.47,11.42,28,12.64,1.55-.2,2.85-.25,4.1-.54a59.5,59.5,0,0,0,30.61-17.92,25,25,0,0,0,5.09-8.17c3.07-8.12,0-15.65-7.84-19.37a25.56,25.56,0,0,0-6.61-2.14c-14.63-2.52-29.33-1.85-44-.95A36.22,36.22,0,0,0,972,962.53Z"/><path d="M1003,1236.75a3.48,3.48,0,0,0,.76.82c4.48,3.72,10.44,2.17,11.69-3.44.67-3,1.27-6,1.83-9.06.94-5.13,1.77-10.29,2.71-15.42l-.42-.07a24.47,24.47,0,0,0-1.91-14.23,13,13,0,0,0-2.61-3.75c-2.59-2.49-6-2-7.9,1a10.85,10.85,0,0,0-1.51,3.26c-1,4.54-2,9.1-2.72,13.69-.78,5.15-1.36,10.34-1.94,15.52l-.36,3.18a12.25,12.25,0,0,0,0,4.56C1001,1234.23,1002.16,1235.45,1003,1236.75Zm1.86-5.47c.23-2.07.45-4.14.68-6.21.7-6.41,1.4-12.83,2.25-19.22a79.88,79.88,0,0,1,2.33-9.84c.17-.64.87-1.13,1.33-1.69.58.5,1.36.9,1.7,1.52a18.86,18.86,0,0,1,2.45,10.18c-.07,1.42-.24,2.85-.36,4.28l.38.06c-.85,4.9-1.68,9.81-2.54,14.71q-.66,3.75-1.33,7.48c-.5,2.8-1.19,3.19-3.94,2.75C1005.63,1235,1004.6,1233.6,1004.86,1231.28Z"/><path d="M994,1232.28c-.6-.27-1.6.29-2.4.55-.54.18-1,.66-1.55.64-2.07-.07-4.14-.25-6.19-.51a1.29,1.29,0,0,1-.8-1,31.87,31.87,0,0,1,3.3-14.26c2.53-5.14,5.08-10.26,7.35-15.5a13.1,13.1,0,0,0-.05-11.49,7.21,7.21,0,0,0-6.25-4.37,5.6,5.6,0,0,0-5.44,3,16.23,16.23,0,0,0-2.23,10.18A8.53,8.53,0,0,0,981,1202a21.82,21.82,0,0,0,1.17-2.38c1-2.68,1.71-5.45,2.8-8.07a2.28,2.28,0,0,1,3.78-.73,6.33,6.33,0,0,1,1.65,2.47c1,2.64.38,5.23-.71,7.66-1.65,3.67-3.27,7.38-5.24,10.88a45.9,45.9,0,0,0-5.15,13.23,35.82,35.82,0,0,0-.74,8.71c.07,1.76.76,2.93,2.46,3.29s3.26.51,5.32.82c1.76,0,4,.1,6.12,0,2.37-.12,3.28-1.12,3.05-3.47A3.05,3.05,0,0,0,994,1232.28Z"/><path d="M953.28,1177.34c-1.3-.12-3.15,1.2-2.86,2.29a3.2,3.2,0,0,0,1.94,1.63c1.1.36,2.8-1,2.88-2A2,2,0,0,0,953.28,1177.34Z"/><path d="M954.93,1251.83a5.5,5.5,0,0,0,1.17-2.09,4.1,4.1,0,0,0-.4-3l-.62-1.24c-.68-1.43-1.34-2.88-2-4.3l-.27-.57-.35-.66c-1-1.79-2.12-2.59-3.66-2.52h-.1a8.28,8.28,0,0,0-2.65.75c-1.24.55-1.91,1.34-1.95,2.26a2,2,0,0,0,0,.48,3.11,3.11,0,0,0,.11.41,2.25,2.25,0,0,0,2.65,1.41c.24,0,.49-.07.76-.13a.37.37,0,0,1,.18,0,1.39,1.39,0,0,1,1,.52c.54.94.91,2,1.38,3,1.4,3,1.26,3.45-1.67,5.18a8.43,8.43,0,0,1-1.17.57l0,0c-.27.11-.55.2-.82.29a18.93,18.93,0,0,1-9.63.27l-3-.59a37.89,37.89,0,0,0-6.62-.8,20.24,20.24,0,0,0-3.1.19c-3.2.46-6.05,1.63-7.7,4.54a6.22,6.22,0,0,0-.71,3.82,8.36,8.36,0,0,0,6.79,7.21,6.44,6.44,0,0,0,4.87-1.17c.18-.14.37-.29.55-.45s.56-.83.45-1a.53.53,0,0,0-.13-.13,2.41,2.41,0,0,0-1-.46c-.27-.08-.61.1-.89.05a18.66,18.66,0,0,1-4-.77,3.57,3.57,0,0,1-2-2.16,4.83,4.83,0,0,1-.3-1.51c0-.21,0-.43,0-.64a2.82,2.82,0,0,1,2.43-2.36,4.21,4.21,0,0,1,.49-.09l1-.12a28.34,28.34,0,0,1,6.17-.16,43.2,43.2,0,0,1,4.64.78c1.44.3,2.88.63,4.32.91l0-.19h0c.83.07,1.65.19,2.48.2C946.88,1257.6,951.42,1255.94,954.93,1251.83Z"/><path d="M932.4,1199.12c3.62,7.9,7.34,15.74,11,23.61l.23-.19q-5.83-13.71-11.65-27.42a8.56,8.56,0,0,0-.61-1.21,3,3,0,0,0-.57-.61,3.1,3.1,0,0,0,0,.75A37.18,37.18,0,0,0,932.4,1199.12Z"/><path d="M895.18,1261.27a1.21,1.21,0,0,0,0-.18,1.4,1.4,0,0,0-.15-.3,2,2,0,0,0-.46-.52l-.18-.12h0a.91.91,0,0,0-.16-.11h0c-1-.23-2.16-.09-2.4,1a2.39,2.39,0,0,0,0,1v.06c.11.56.34,1.15.45,1.71h0a3.75,3.75,0,0,0,1,0,2.13,2.13,0,0,0,.79-.23,2,2,0,0,0,1-1.06,2.68,2.68,0,0,0,.18-.73v0A1.86,1.86,0,0,0,895.18,1261.27Z"/><path d="M998.2,1146.44c2.1.17,4.21.24,6.31.24.74,0,1,.14.94.9-.16,2.1-.25,4.2-.36,6.3a1.91,1.91,0,1,0,3.8.47,7.67,7.67,0,0,0,.05-1.59c0-4.23,0-8.46.06-12.7.08-5.56.22-11.12.32-16.68,0-1.23-.3-2.24-1.74-2.27s-1.65,1-1.72,2.16c-.3,5.6-.58,11.2-1,16.79-.17,2.37-.29,2.36-2.6,2.45-.38,0-.75,0-1.12.06-1,.09-1.27-.3-1.15-1.32.77-6.43,1.47-12.86,2.2-19.3l-.28,0c.22-2.59.51-5.18.62-7.76a7.33,7.33,0,0,0-.65-2.23,6.77,6.77,0,0,0-1.08,1.86c-1.07,5-2.18,9.9-3.06,14.9-.84,4.77-1.43,9.59-2.15,14.39A2.65,2.65,0,0,0,998.2,1146.44Z"/><path d="M1031.24,1136.8a3.21,3.21,0,0,0-3,1.91,4,4,0,0,0,1.84,4.35,3.53,3.53,0,0,0,4.3,0c1.08-1,1.12-2.12.16-4.1l0-.06a.07.07,0,0,0,0,0,4.3,4.3,0,0,1,.25-.48c.39-.58,1.22-1.28,1.09-1.68a5.17,5.17,0,0,0-1.69-2.29c-.27-.21-1.17.38-1.78.61a2.62,2.62,0,0,0-.08.78C1032.44,1136.72,1032.19,1137,1031.24,1136.8Z"/><path d="M1027.17,1136.91a1.28,1.28,0,0,0,.34.14,2.51,2.51,0,0,0,1.58,0,4.36,4.36,0,0,0,.53-.2l.34-.21a4.07,4.07,0,0,0,.38-.28,4.42,4.42,0,0,0,.53-.53,5.76,5.76,0,0,0,.51-.66,11.86,11.86,0,0,0,.19-1.67c0-2.77-1.8-4.19-4.26-3.43-.25.22-.51.44-.74.68-1.35,1.44-1.59,4-.5,5.3A3.34,3.34,0,0,0,1027.17,1136.91Z"/><path d="M1070.41,1243.14c-2-.44-3.9-.59-4.38-3.11a19.06,19.06,0,0,0-5.08-9.42c-2.06-2.23-5-2.91-7.23-1.54-4.43,2.64-5.61,9.39-.77,12.57,2.56,1.67,5.59,2.68,8.46,3.86.92.38,1.51.65,1.79,1.77a30.07,30.07,0,0,0,2.14,6.15,15.73,15.73,0,0,0,10.84,8.81c4.61.39,7.17-.65,8.64-2.83,2.34-3.49.71-8.14-1.66-10.43C1079.62,1245.52,1075.06,1244.17,1070.41,1243.14Zm-8.84-1.94a66.76,66.76,0,0,1-6.79-3.2c-.68-.39-.89-1.6-1.34-2.49a22.07,22.07,0,0,1,1.63-2.77,1.68,1.68,0,0,1,2.45-.17,17.19,17.19,0,0,1,5.34,7.29C1063.13,1240.46,1062.19,1241.46,1061.57,1241.2Zm17.07,16.43a7,7,0,0,1-1,0,11.84,11.84,0,0,1-8.46-7.06,19.42,19.42,0,0,1-.74-2c-.46-1.48-.44-1.54,1.07-1.14,3.19.86,6.44,1.69,9.08,3.8a8.08,8.08,0,0,1,2.38,3.14C1081.79,1256.46,1080.94,1257.5,1078.64,1257.63Z"/><path d="M911.8,1139.34a8.48,8.48,0,0,0,2.64-.94,3.07,3.07,0,0,0,.93-2.15,1.61,1.61,0,0,0-2-1.41,8,8,0,0,0-2,.62c-1,.36-1.92,1-1.49,2.11C910.2,1138.29,911.14,1138.74,911.8,1139.34Z"/><path d="M901.1,1198.77c1,.21,2,.59,3,.88-1.51,3.4-3,6.79-4.55,10.2a5.61,5.61,0,0,0-.16.62c.11-.14.24-.28.34-.43s0,0,0-.06h0l2.49-4.77L905,1200h0l.57,0-.57,0h0l.59,0h.35l.67-.05c.71.08,1.41.18,2.13.24a2,2,0,0,0,2.26-1.7c.13-1.19-.65-2-2.29-2.23-.46-.21-1.38.38-1.31-.76,1.62-3.36,3.26-6.71,4.84-10.1a4,4,0,0,0,.25-.78c.1-.45.16-.92.26-1.36h0a.88.88,0,0,1-.05-.15l-.06-.17a1.13,1.13,0,0,1-.06-.31c-.09-3-1.1-4.41-3.95-5.43a12.12,12.12,0,0,0-7.44,0c-2.25.62-4,.58-5.73-1.32a5.4,5.4,0,0,0-6.16-1.18,4.55,4.55,0,0,0-2.83,4.66c.23,1.84,1.4,2.9,3.71,3.08a11.11,11.11,0,0,0,3.91-.22,6,6,0,0,1,5.48,1,4,4,0,0,0,.4.22c.84.44,1.68.9,2.53,1.32.21.1.42.21.64.3l1,.42a15.18,15.18,0,0,0,1.57.52h0a6.76,6.76,0,0,0,.78.17l.46.07.22,0s0,0,0,0h.05l.24,0h.09c.23,0,.46,0,.69,0h.19l.26,0,.2,0,.5-.07.19,0-.19,0-.49.07a4.44,4.44,0,0,0,.49-.07l.31,0,.38-.1-.38.1-.12,0,.12,0,.39-.1.44-.12h0l.16,0c-1.57,3.26-3.15,6.53-4.73,9.78l-.28.07h0l-.16,0,.14,0-.14,0-.15,0h0a.44.44,0,0,1-.2,0c-3.22-.58-6.42-1.2-9.64-1.79-2.84-.51-5.68-1-8.55-1.48a1.94,1.94,0,0,0-2.27,1.26,1.88,1.88,0,0,0,.94,2.31c1.33.93,2.65,1.86,4,2.71a3.4,3.4,0,0,0,1.34.19c0-.41,0-.83,0-1.25a5,5,0,0,0-.15-.73c.25,0,.5.05.76.1C894.76,1197.53,897.94,1198.12,901.1,1198.77Zm-6.47-20.2c-1.29.19-2.58.35-4,.53-.27-.2-.83-.52-.8-.6a2.24,2.24,0,0,1,.78-1.1,4.38,4.38,0,0,1,4.2.77C894.85,1178.2,894.71,1178.56,894.63,1178.57Zm13,4.07-4.67-2c-.1,0-.16-.15-.24-.23.1-.06.21-.18.33-.19a7.2,7.2,0,0,1,5.11.7,1.33,1.33,0,0,1,.56,1C908.66,1182.21,908.08,1182.37,907.63,1182.64Z"/><polygon points="904.98 1199.98 904.98 1199.98 904.98 1199.98 904.98 1199.98"/><path d="M1065,1152.1a6.22,6.22,0,0,0,6.55-4.61,5.51,5.51,0,0,0-2.61-6.39c-.61-.35-1.27-.61-1.91-.91.72-.29,1.47-.54,2.17-.88a9.23,9.23,0,0,0,1.17-.83c-.48-.25-.92-.7-1.41-.74a9,9,0,0,0-9,4.46A6.39,6.39,0,0,0,1065,1152.1Zm-1.25-7.67a9.44,9.44,0,0,1,2.27-.53,1.94,1.94,0,0,1,1.93,2.27,2.65,2.65,0,0,1-.11.52v0a2.61,2.61,0,0,1-.24.54,1.07,1.07,0,0,1-.15.22l0,.06a2.43,2.43,0,0,1-2.21.78,2.65,2.65,0,0,1-2.26-1.27,2.78,2.78,0,0,1-.29-.6C1062.15,1145.13,1062.4,1144.69,1063.76,1144.43Z"/><path d="M1103.07,1202.31a10.64,10.64,0,0,0-8.29-1.57c-2.2.46-4.1,1.53-4.78,3.82a5.09,5.09,0,0,0,1.53,5.47,5.55,5.55,0,0,0,6,.87,4.91,4.91,0,0,0,3.38-4.63c0-.59.1-1.18.16-1.77l1.87.73h0l.1,0,1.51,0a7.32,7.32,0,0,0-.4-1.72A5.88,5.88,0,0,0,1103.07,1202.31Zm-7.8,5.53c-1.28-.47-2-1.19-1.68-2.06.26-.67,1.27-1.06,1.94-1.58.51.69,1.37,1.35,1.4,2C1097,1206.76,1095.86,1207.31,1095.27,1207.84Z"/><path d="M1103.07,1205.29l-.1,0,.1,0Z"/><path d="M1101.18,1191.77a3.59,3.59,0,0,0-1,.17c.12.29.17.66.38.85.7.64.29.68-.32.77l-11.7,1.68c-1.07.15-2,.67-1.81,1.84a3.59,3.59,0,0,0,1.5,1.8c.28.21.93-.05,1.41-.13l7.47-1.3,6-1h0l-5.74,1,5.73-1a2.84,2.84,0,0,0,.94-.36c.55-.53,1.41-1.15,1.41-1.73s-.84-1.22-1.39-1.76c-.25-.24-.68-.27-1-.41C1102.42,1192,1101.8,1191.85,1101.18,1191.77Z"/><path d="M913.07,1212.9a8.85,8.85,0,0,0-.65,1.06c-1.93,3.69-3.85,7.38-5.7,11.11a194.25,194.25,0,0,0-8.46,19.13c-.1.24-.16.49-.24.73a4.16,4.16,0,0,0,.5-.61,191.82,191.82,0,0,0,10-19.25c.77-1.67,1.52-3.34,2.28-5,1-2.26,1.93-4.57,2.88-6.86l-.2-.62A1.91,1.91,0,0,0,913.07,1212.9Z"/></svg>